# xmcd CD database file
#
# Track frame offsets:
#	183
#	3808
#	28155
#	41368
#	47015
#	57713
#	71910
#	92520
#	108090
#	126740
#	143460
#	151255
#	166443
#	166980
#	179143
#	197310
#	216085
#	238830
#	250533
#	260723
#	275070
#	298385
#	317953
#	335228
#
# Disc length: 4678 seconds
#
# Revision: 0
# Processed by: cddbd v1.5PL3 Copyright (c) Steve Scherf et al.
# Submitted via: CDex 1.51
#
DISCID=72124418
DTITLE=Duke Ellington - Fargo, North Dakota, Nov 7, 1940 Vol 1
DYEAR=1940
DGENRE=Jazz
TTITLE0=It's Glory (Partial)
TTITLE1=The Moochie
TTITLE2=The Sheik of Araby
TTITLE3=Sepia Panorama (Radio Theme)
TTITLE4=Ko-Ko
TTITLE5=There Shall Be No Night
TTITLE6=Pussy Willow
TTITLE7=Chatterbox
TTITLE8=Mood Indigo
TTITLE9=Harlem Airshaft
TTITLE10=Ferryboat Serenade
TTITLE11=Warm Valley
TTITLE12=Chaser (#1)
TTITLE13=Stompy Jones
TTITLE14=Chloe
TTITLE15=Bojangles
TTITLE16=On The Air
TTITLE17=Rumpus in Richmond
TTITLE18=Chaser (#2)
TTITLE19=The Sidewalks of New York
TTITLE20=The Flaming Sword
TTITLE21=Never No Lament
TTITLE22=Caravan
TTITLE23=Clarinet Lament
EXTD=YEAR: 1940
EXTT0=
EXTT1=
EXTT2=
EXTT3=
EXTT4=
EXTT5=
EXTT6=
EXTT7=
EXTT8=
EXTT9=
EXTT10=
EXTT11=
EXTT12=
EXTT13=
EXTT14=
EXTT15=
EXTT16=
EXTT17=
EXTT18=
EXTT19=
EXTT20=
EXTT21=
EXTT22=
EXTT23=
PLAYORDER=
